<svg width="16" height="13" viewBox="0 0 16 13" fill="none" xmlns="http://www.w3.org/2000/svg">
<path d="M15.7773 2.84375C15.7773 3.47266 15.2852 3.9375 14.6836 3.9375C14.6562 3.9375 14.6562 3.9375 14.6562 3.9375L13.2617 11.5391C13.207 11.9492 12.8242 12.25 12.4141 12.25H3.36328C2.95312 12.25 2.57031 11.9492 2.51562 11.5391L1.12109 3.9375C1.12109 3.9375 1.12109 3.9375 1.09375 3.9375C0.492188 3.9375 0 3.47266 0 2.84375C0 2.24219 0.492188 1.75 1.09375 1.75C1.66797 1.75 2.1875 2.24219 2.1875 2.84375C2.1875 3.08984 2.07812 3.30859 1.94141 3.5L4.40234 5.46875C4.83984 5.79688 5.46875 5.66016 5.71484 5.16797L7.30078 2.02344C7 1.83203 6.78125 1.50391 6.78125 1.09375C6.78125 0.492188 7.27344 0 7.90234 0C8.50391 0 8.96875 0.492188 8.96875 1.09375C8.96875 1.50391 8.75 1.83203 8.42188 2.02344L10.0078 5.16797C10.2539 5.66016 10.9102 5.79688 11.3477 5.46875L13.7812 3.5C13.6719 3.30859 13.5898 3.08984 13.5898 2.84375C13.5898 2.24219 14.0547 1.75 14.6836 1.75C15.2852 1.75 15.7773 2.24219 15.7773 2.84375Z" fill="#335EEA"/>
</svg>