<svg width="20" height="20" viewBox="0 0 20 20" fill="none" xmlns="http://www.w3.org/2000/svg">
<path d="M2.07031 6.32812C1.60156 7.34375 1.36719 8.51562 1.36719 9.6875C1.36719 13.0078 3.28125 15.8203 6.05469 17.1875L2.07031 6.32812ZM15.2734 9.29688C15.2734 10 15 10.8203 14.6484 11.9531L13.8281 14.7266L10.8203 5.82031C11.3281 5.78125 11.7578 5.74219 11.7578 5.74219C12.2266 5.66406 12.1484 5 11.7188 5.03906C11.7188 5.03906 10.3516 5.15625 9.49219 5.15625C8.67188 5.15625 7.30469 5.03906 7.30469 5.03906C6.875 5 6.79688 5.70312 7.26562 5.74219C7.26562 5.74219 7.69531 5.78125 8.125 5.82031L9.41406 9.33594L7.61719 14.8047L4.57031 5.82031C5.07812 5.78125 5.54688 5.74219 5.54688 5.74219C5.97656 5.66406 5.9375 5 5.46875 5.03906C5.46875 5.03906 4.14062 5.15625 3.24219 5.15625C3.08594 5.15625 2.92969 5.15625 2.73438 5.15625C4.21875 2.89062 6.75781 1.40625 9.6875 1.40625C11.8359 1.40625 13.7891 2.22656 15.2734 3.59375C15.2344 3.55469 15.1953 3.55469 15.1562 3.55469C14.375 3.55469 13.7891 4.29688 13.7891 5.03906C13.7891 5.74219 14.1797 6.32812 14.6094 6.99219C14.9219 7.53906 15.2734 8.24219 15.2734 9.29688ZM9.80469 10.4297L12.3828 17.4219C12.3828 17.4609 12.4219 17.5 12.4219 17.5391C11.5625 17.8516 10.625 18.0078 9.6875 18.0078C8.86719 18.0078 8.08594 17.8906 7.30469 17.6953L9.80469 10.4297ZM16.9531 5.70312C17.6172 6.91406 17.9688 8.24219 17.9688 9.6875C17.9688 12.7734 16.3281 15.4297 13.8281 16.875L16.3672 9.53125C16.875 8.35938 17.0312 7.42188 17.0312 6.5625C17.0312 6.25 16.9922 5.97656 16.9531 5.70312ZM19.375 9.6875C19.375 4.375 15 0 9.6875 0C4.33594 0 0 4.375 0 9.6875C0 15.0391 4.33594 19.375 9.6875 19.375C15 19.375 19.375 15.0391 19.375 9.6875ZM18.9062 9.6875C18.9062 14.8047 14.7656 18.9453 9.6875 18.9453C4.57031 18.9453 0.429688 14.8047 0.429688 9.6875C0.429688 4.60938 4.57031 0.46875 9.6875 0.46875C14.7656 0.46875 18.9062 4.60938 18.9062 9.6875Z" fill="#1D2327"/>
</svg>
