<svg width="70" height="53" viewBox="0 0 70 53" fill="none" xmlns="http://www.w3.org/2000/svg">
  <defs>
    <radialGradient id="env-grad" cx="0" cy="0" r="1" gradientUnits="userSpaceOnUse" gradientTransform="translate(4 -12) rotate(60) scale(94)">
      <stop stop-color="#9A20F8"/>
      <stop offset="1" stop-color="#C520F8" stop-opacity="0"/>
    </radialGradient>
    <radialGradient id="env-body-grad" cx="0" cy="0" r="1" gradientUnits="userSpaceOnUse" gradientTransform="translate(4 20) rotate(40) scale(136 214)">
      <stop stop-color="#9A20F8" stop-opacity="0.8"/>
      <stop offset="1" stop-color="#3058E5"/>
    </radialGradient>
    <clipPath id="env-logo-clip">
      <rect width="20" height="20" fill="white" transform="translate(25 28)"/>
    </clipPath>
  </defs>

  <!-- Envelope back flap -->
  <path d="M6 8C6 5.23858 8.23858 3 11 3H59C61.7614 3 64 5.23858 64 8V38C64 40.7614 61.7614 43 59 43H11C8.23858 43 6 40.7614 6 38V8Z" fill="#3058E5"/>
  <path d="M6 8C6 5.23858 8.23858 3 11 3H59C61.7614 3 64 5.23858 64 8V38C64 40.7614 61.7614 43 59 43H11C8.23858 43 6 40.7614 6 38V8Z" fill="url(#env-grad)"/>
  <path d="M11 3.125H59C61.6924 3.125 63.875 5.30762 63.875 8V38C63.875 40.6924 61.6924 42.875 59 42.875H11C8.30762 42.875 6.125 40.6924 6.125 38V8C6.125 5.30762 8.30762 3.125 11 3.125Z" stroke="#374151" stroke-opacity="0.08" stroke-width="0.25"/>

  <!-- Paper/letter inside -->
  <rect x="14" y="1" width="42" height="34" rx="3" fill="white" stroke="#9A20F8" stroke-width="0.5"/>
  <line x1="20" y1="10" x2="50" y2="10" stroke="#9A20F8" stroke-width="0.5" stroke-opacity="0.4"/>
  <line x1="20" y1="15" x2="46" y2="15" stroke="#9A20F8" stroke-width="0.5" stroke-opacity="0.3"/>
  <line x1="20" y1="20" x2="42" y2="20" stroke="#9A20F8" stroke-width="0.5" stroke-opacity="0.2"/>

  <!-- Envelope body (frosted overlay) -->
  <path d="M3.5 19.5C3.5 17.5 5 16 7 16H63C65 16 66.5 17.5 66.5 19.5L37.5 38C36 39 34 39 32.5 38L3.5 19.5Z" fill="url(#env-body-grad)"/>
  <path d="M3 20C3 17.2386 5.23858 15 8 15H62C64.7614 15 67 17.2386 67 20V46C67 48.7614 64.7614 51 62 51H8C5.23858 51 3 48.7614 3 46V20Z" fill="url(#env-body-grad)"/>
  <path d="M8 15.25H62C64.6234 15.25 66.75 17.3766 66.75 20V46C66.75 48.6234 64.6234 50.75 62 50.75H8C5.37665 50.75 3.25 48.6234 3.25 46V20C3.25 17.3766 5.37665 15.25 8 15.25Z" stroke="#374151" stroke-opacity="0.08" stroke-width="0.5"/>

  <!-- Envelope flap V shape -->
  <path d="M3.5 16L33.5 36C34.3 36.6 35.7 36.6 36.5 36L66.5 16" stroke="white" stroke-opacity="0.3" stroke-width="0.5" fill="none"/>

  <!-- Presto Player logo -->
  <g clip-path="url(#env-logo-clip)">
    <path d="M38.87 37.67L44.74 34.25V41.08L38.87 37.67Z" fill="white"/>
    <path d="M38.87 30.89L44.74 34.31L38.87 37.73V30.89Z" fill="white"/>
    <path d="M38.87 30.89V37.67L33 34.25L38.87 30.89Z" fill="white"/>
    <path d="M38.93 30.89L33.06 34.31V28L38.93 30.89Z" fill="white"/>
    <path d="M33 34.31V41.14L27.13 37.73L33 34.31Z" fill="white"/>
    <path d="M33 28V34.31L27.13 30.89L33 28Z" fill="white"/>
    <path d="M33 41.07V47.88L27.13 44.47L33 41.07Z" fill="white"/>
    <path d="M38.87 37.67L44.74 41.08L38.87 44.5V37.67Z" fill="white"/>
    <path d="M27.13 37.67L33 41.08L27.13 44.5V37.67Z" fill="white"/>
    <path d="M27.13 30.89L33 34.31L27.13 37.73V30.89Z" fill="white"/>
    <path d="M38.87 37.67V44.5L33 41.08L38.87 37.67Z" fill="white"/>
  </g>
</svg>
