<svg width="70" height="53" viewBox="339 4 72 53" fill="none" xmlns="http://www.w3.org/2000/svg">
  <defs>
    <radialGradient id="tab-grad" cx="0" cy="0" r="1" gradientUnits="userSpaceOnUse" gradientTransform="translate(343.5 -16.125) rotate(60.1044) scale(94.2977 94.2977)">
      <stop stop-color="#9A20F8"/>
      <stop offset="1" stop-color="#C520F8" stop-opacity="0"/>
    </radialGradient>
    <radialGradient id="body-grad" cx="0" cy="0" r="1" gradientUnits="userSpaceOnUse" gradientTransform="translate(343.5 16.375) rotate(40.3555) scale(135.901 214.097)">
      <stop stop-color="#9A20F8" stop-opacity="0.8"/>
      <stop offset="1" stop-color="#3058E5"/>
    </radialGradient>
    <clipPath id="logo-clip">
      <rect width="24" height="24" fill="white" transform="translate(363.5 24.75)"/>
    </clipPath>
  </defs>

  <!-- Folder tab -->
  <path d="M343.5 10C343.5 6.68629 346.186 4 349.5 4H359.5H365.246C366.699 4 368.103 4.52751 369.197 5.48454L373.803 9.51546C374.897 10.4725 376.301 11 377.754 11H401.5C404.814 11 407.5 13.6863 407.5 17V51C407.5 54.3137 404.814 57 401.5 57H349.5C346.186 57 343.5 54.3137 343.5 51V10Z" fill="#3058E5"/>
  <path d="M343.5 10C343.5 6.68629 346.186 4 349.5 4H359.5H365.246C366.699 4 368.103 4.52751 369.197 5.48454L373.803 9.51546C374.897 10.4725 376.301 11 377.754 11H401.5C404.814 11 407.5 13.6863 407.5 17V51C407.5 54.3137 404.814 57 401.5 57H349.5C346.186 57 343.5 54.3137 343.5 51V10Z" fill="url(#tab-grad)"/>
  <path d="M349.5 4.125H365.245C366.668 4.125 368.043 4.64118 369.114 5.57812L373.721 9.60938C374.837 10.5863 376.271 11.125 377.755 11.125H401.5C404.745 11.125 407.375 13.7553 407.375 17V51C407.375 54.2447 404.745 56.875 401.5 56.875H349.5C346.255 56.875 343.625 54.2447 343.625 51V10C343.625 6.75533 346.255 4.125 349.5 4.125Z" stroke="#374151" stroke-opacity="0.08" stroke-width="0.25"/>

  <!-- File document icons -->
  <path d="M370.173 10.9784L354.271 12.0445C353.279 12.1111 352.353 12.5691 351.699 13.3178C351.044 14.0666 350.714 15.0447 350.78 16.037L352.787 45.9698C352.854 46.9621 353.312 47.8874 354.06 48.542C354.809 49.1967 355.787 49.5271 356.78 49.4605L379.229 47.9554C380.221 47.8888 381.147 47.4308 381.801 46.6821C382.456 45.9334 382.786 44.9552 382.72 43.9629L381.152 20.5779L370.173 10.9784Z" fill="white" stroke="#9A20F8" stroke-width="0.5" stroke-linecap="round" stroke-linejoin="round"/>
  <path d="M369.237 11.0411L369.99 22.2659L381.215 21.5133" stroke="#9A20F8" stroke-width="0.5" stroke-linecap="round" stroke-linejoin="round"/>
  <path d="M362.883 28.38L372.613 33.3652L363.635 39.6048L362.883 28.38Z" stroke="#9A20F8" stroke-width="0.5" stroke-linecap="round" stroke-linejoin="round"/>

  <path d="M380.861 12.8046L396.729 14.2869C397.72 14.3794 398.633 14.8614 399.267 15.6271C399.902 16.3927 400.207 17.3791 400.114 18.3694L397.324 48.2393C397.232 49.2296 396.75 50.1425 395.984 50.7773C395.218 51.4122 394.232 51.7168 393.242 51.6243L370.839 49.5318C369.849 49.4393 368.936 48.9572 368.301 48.1916C367.666 47.4259 367.362 46.4395 367.454 45.4493L369.634 22.1133L380.861 12.8046Z" fill="white" stroke="#9A20F8" stroke-width="0.5" stroke-linecap="round" stroke-linejoin="round"/>
  <path d="M381.794 12.8918L380.748 24.0931L369.547 23.0468" stroke="#9A20F8" stroke-width="0.5" stroke-linecap="round" stroke-linejoin="round"/>
  <path d="M387.692 30.3911L377.835 35.1198L386.646 41.5924L387.692 30.3911Z" stroke="#9A20F8" stroke-width="0.5" stroke-linecap="round" stroke-linejoin="round"/>

  <path d="M383.41 8.78744L367.513 7.66084C366.521 7.59053 365.541 7.91721 364.79 8.569C364.039 9.22078 363.577 10.1443 363.507 11.1364L361.386 41.0613C361.316 42.0534 361.643 43.0328 362.294 43.784C362.946 44.5352 363.87 44.9967 364.862 45.067L387.305 46.6575C388.298 46.7278 389.277 46.4012 390.028 45.7494C390.779 45.0976 391.241 44.1741 391.311 43.182L392.968 19.8031L383.41 8.78744Z" fill="white" stroke="#9A20F8" stroke-width="0.5" stroke-linecap="round" stroke-linejoin="round"/>
  <path d="M382.475 8.72119L381.68 19.943L392.902 20.7383" stroke="#9A20F8" stroke-width="0.5" stroke-linecap="round" stroke-linejoin="round"/>
  <path d="M373.801 25.0238L382.755 31.2974L373.006 36.2457L373.801 25.0238Z" stroke="#9A20F8" stroke-width="0.5" stroke-linecap="round" stroke-linejoin="round"/>

  <!-- Folder body (frosted overlay) -->
  <path d="M340.976 22.8169C340.719 19.3386 343.472 16.375 346.959 16.375H404.041C407.528 16.375 410.281 19.3386 410.024 22.8169L407.91 51.4419C407.679 54.5756 405.069 57 401.927 57H349.073C345.931 57 343.321 54.5756 343.09 51.4419L340.976 22.8169Z" fill="url(#body-grad)"/>
  <path d="M346.959 16.625H404.041C407.383 16.6252 410.022 19.4656 409.775 22.7988L407.661 51.4238C407.439 54.4268 404.938 56.75 401.927 56.75H349.073C346.062 56.75 343.561 54.4268 343.339 51.4238L341.225 22.7988C340.978 19.4656 343.617 16.6252 346.959 16.625Z" stroke="#374151" stroke-opacity="0.08" stroke-width="0.5"/>

  <!-- Presto Player logo -->
  <g clip-path="url(#logo-clip)">
    <path d="M379.239 36.6658L386.108 32.6704V40.6612L379.239 36.6658Z" fill="white"/>
    <path d="M379.239 28.7456L386.108 32.741L379.239 36.7364V28.7456Z" fill="white"/>
    <path d="M379.238 28.7456V36.6663L372.369 32.6709L379.238 28.7456Z" fill="white"/>
    <path d="M379.309 28.7454L372.439 32.7408V24.75L379.309 28.7454Z" fill="white"/>
    <path d="M372.369 32.7407V40.7315L365.5 36.7361L372.369 32.7407Z" fill="white"/>
    <path d="M372.369 24.75V32.7408L365.5 28.7454L372.369 24.75Z" fill="white"/>
    <path d="M372.369 40.6616V48.6524L365.5 44.657L372.369 40.6616Z" fill="white"/>
    <path d="M379.239 36.666L386.108 40.6614L379.239 44.6568V36.666Z" fill="white"/>
    <path d="M365.5 36.666L372.369 40.6614L365.5 44.6568V36.666Z" fill="white"/>
    <path d="M365.5 28.7456L372.369 32.741L365.5 36.7364V28.7456Z" fill="white"/>
    <path d="M379.238 36.666V44.6568L372.369 40.6614L379.238 36.666Z" fill="white"/>
  </g>
</svg>
