<svg xmlns="http://www.w3.org/2000/svg" width="52" height="52" viewBox="0 0 52 52" fill="none"><path d="M35.8345 19.9029C34.8273 19.5359 33.7626 19.3518 32.6906 19.3591C29.224 19.3591 26.7756 21.1054 26.7583 23.6123C26.7366 25.4539 28.4981 26.4918 29.8306 27.1071C31.1978 27.7398 31.655 28.1384 31.6506 28.7039C31.642 29.5641 30.5586 29.9541 29.5511 29.9541C28.1666 29.9541 27.4105 29.7613 26.247 29.2781L25.8158 29.0766L25.324 31.9626C26.1668 32.3136 27.6856 32.6148 29.2543 32.6408C32.9398 32.6408 35.3491 30.9053 35.3773 28.2381C35.4076 26.7669 34.4543 25.6554 32.448 24.7368C31.2281 24.1409 30.472 23.7423 30.472 23.1378C30.472 22.6026 31.1198 22.0306 32.474 22.0306C33.3752 22.0088 34.2709 22.1779 35.1021 22.5268L35.4271 22.6719L35.919 19.8834L35.8345 19.9029ZM44.8305 19.5931H42.1221C41.2793 19.5931 40.6445 19.8249 40.2761 20.6613L35.0675 32.4609H38.753L39.4896 30.5261L43.9876 30.5304C44.0938 30.9833 44.4188 32.4609 44.4188 32.4609H47.6688L44.8305 19.5931ZM21.7728 19.4848H25.285L23.088 32.3591H19.5801L21.7728 19.4804V19.4848ZM12.857 26.5806L13.221 28.3681L16.653 19.5931H20.3731L14.846 32.4436H11.1345L8.10115 21.5626C8.05202 21.3832 7.93664 21.2291 7.77831 21.1314C6.68501 20.5667 5.52659 20.1381 4.32898 19.8553L4.37665 19.5844H10.0295C10.7965 19.6148 11.414 19.8553 11.6198 20.6743L12.8548 26.5871V26.5806H12.857ZM40.4971 27.8936L41.8968 24.2926C41.8795 24.3316 42.185 23.5494 42.3626 23.0663L42.6031 24.1778L43.4156 27.8914H40.495V27.8936H40.4971Z" fill="black"></path></svg>