<svg xmlns="http://www.w3.org/2000/svg" width="52" height="52" viewBox="0 0 52 52" fill="none"><path d="M17.6667 34.3332L34.3334 17.6665" stroke="black" stroke-width="2" stroke-linecap="round" stroke-linejoin="round"></path><path d="M19.0556 20.4443C19.8226 20.4443 20.4445 19.8225 20.4445 19.0554C20.4445 18.2883 19.8226 17.6665 19.0556 17.6665C18.2885 17.6665 17.6667 18.2883 17.6667 19.0554C17.6667 19.8225 18.2885 20.4443 19.0556 20.4443Z" fill="black" stroke="black" stroke-width="2" stroke-linecap="round" stroke-linejoin="round"></path><path d="M32.9444 34.3334C33.7115 34.3334 34.3333 33.7116 34.3333 32.9446C34.3333 32.1775 33.7115 31.5557 32.9444 31.5557C32.1774 31.5557 31.5555 32.1775 31.5555 32.9446C31.5555 33.7116 32.1774 34.3334 32.9444 34.3334Z" fill="black" stroke="black" stroke-width="2" stroke-linecap="round" stroke-linejoin="round"></path><path d="M26 51C39.8071 51 51 39.8071 51 26C51 12.1929 39.8071 1 26 1C12.1929 1 1 12.1929 1 26C1 39.8071 12.1929 51 26 51Z" stroke="black" stroke-width="2" stroke-linecap="round" stroke-linejoin="round"></path></svg>