<svg xmlns="http://www.w3.org/2000/svg" width="57" height="53" viewBox="0 0 57 53" fill="none"><path d="M33.25 40.378C33.2506 43.01 34.1257 45.5672 35.7377 47.6478C37.3496 49.7284 39.6071 51.2146 42.1555 51.8727C44.7039 52.5309 47.3987 52.3238 49.8166 51.2839C52.2345 50.244 54.2384 48.4304 55.5134 46.1279C56.7885 43.8253 57.2625 41.1644 56.861 38.5633C56.4594 35.9621 55.2051 33.568 53.295 31.7572C51.3849 29.9464 48.9274 28.8214 46.3085 28.5591C43.6896 28.2968 41.0578 28.912 38.8265 30.308C39.5915 25.7102 41.1199 21.2727 43.3485 17.179C46.4312 11.574 50.3595 7.62674 53.9315 4.05949C54.3774 3.61353 54.628 3.00867 54.628 2.37799C54.628 1.74731 54.3774 1.14245 53.9315 0.696488C53.4855 0.250527 52.8807 -7.26927e-06 52.25 -7.21413e-06C51.6193 -7.159e-06 51.0144 0.250527 50.5685 0.696488L50.5162 0.753491C46.968 4.30174 42.6122 8.65749 39.1827 14.8895C35.72 21.1975 33.25 29.3105 33.25 40.378ZM5.57648 30.308C7.80775 28.912 10.4396 28.2968 13.0585 28.5591C15.6774 28.8214 18.1349 29.9464 20.045 31.7572C21.9551 33.568 23.2094 35.9621 23.611 38.5633C24.0125 41.1644 23.5385 43.8253 22.2635 46.1279C20.9884 48.4304 18.9845 50.244 16.5666 51.2839C14.1487 52.3238 11.4539 52.5309 8.90553 51.8727C6.35714 51.2146 4.09963 49.7284 2.48766 47.6478C0.875701 45.5672 0.000643876 43.01 -2.01114e-05 40.378C-2.10789e-05 29.3105 2.46998 21.1975 5.93748 14.8895C9.36223 8.65749 13.718 4.29699 17.2615 0.753494L17.3185 0.696491C17.7644 0.25053 18.3693 -4.25219e-06 19 -4.30733e-06C19.6307 -4.36246e-06 20.2355 0.25053 20.6815 0.696491C21.1274 1.14246 21.378 1.74731 21.378 2.37799C21.378 3.00868 21.1274 3.61353 20.6815 4.05949C17.1095 7.62674 13.1812 11.5692 10.0985 17.179C7.8692 21.2741 6.34076 25.7133 5.57648 30.3127L5.57648 30.308Z" fill="#E7E7E7"></path></svg>