<svg xmlns="http://www.w3.org/2000/svg" width="50" height="37" viewBox="0 0 50 37" fill="none"><path d="M6.82471e-09 4.62334C6.82471e-09 3.39715 0.49386 2.22119 1.37294 1.35414C2.25201 0.4871 3.4443 0 4.6875 0H32.8125C34.0557 0 35.248 0.4871 36.1271 1.35414C37.0061 2.22119 37.5 3.39715 37.5 4.62334V9.24667H40.6875C41.3898 9.24729 42.083 9.40355 42.7159 9.70391C43.3487 10.0043 43.905 10.441 44.3438 10.982L48.9719 16.6841C49.6378 17.5045 50.0004 18.5243 50 19.5752V26.1989C50 27.4251 49.5061 28.6011 48.6271 29.4681C47.748 30.3351 46.5557 30.8222 45.3125 30.8222H43.75C43.75 32.4572 43.0915 34.0251 41.9194 35.1812C40.7473 36.3372 39.1576 36.9867 37.5 36.9867C35.8424 36.9867 34.2527 36.3372 33.0806 35.1812C31.9085 34.0251 31.25 32.4572 31.25 30.8222H15.625C15.6268 31.6439 15.462 32.4577 15.1404 33.2156C14.8187 33.9736 14.3467 34.6605 13.752 35.2359C13.1574 35.8113 12.452 36.2637 11.6776 36.5664C10.9031 36.8691 10.0751 37.0161 9.24217 36.9986C8.40928 36.9811 7.58833 36.7996 6.82759 36.4647C6.06686 36.1298 5.38168 35.6483 4.81234 35.0484C4.243 34.4486 3.80099 33.7425 3.51229 32.9718C3.2236 32.201 3.09405 31.3811 3.13125 30.5603C2.21578 30.2425 1.42288 29.6522 0.862013 28.871C0.301143 28.0898 -5.23499e-05 27.1561 6.82471e-09 26.1989L6.82471e-09 4.62334ZM4.04375 27.6044C4.60875 26.692 5.40473 25.9404 6.35343 25.4233C7.30214 24.9062 8.37094 24.6415 9.45477 24.6552C10.5386 24.6689 11.6002 24.9605 12.5352 25.5013C13.4701 26.0422 14.2464 26.8137 14.7875 27.74H32.0875C32.6372 26.8039 33.4259 26.026 34.375 25.4838V4.62334C34.375 4.21461 34.2104 3.82262 33.9174 3.53361C33.6243 3.24459 33.2269 3.08222 32.8125 3.08222H4.6875C4.2731 3.08222 3.87567 3.24459 3.58265 3.53361C3.28962 3.82262 3.125 4.21461 3.125 4.62334V26.1989C3.12475 26.4955 3.21131 26.7859 3.37428 27.0353C3.53725 27.2846 3.76971 27.4822 4.04375 27.6044ZM37.5 24.6578C38.5971 24.6578 39.6748 24.9427 40.6249 25.4837C41.575 26.0248 42.364 26.8029 42.9125 27.74H45.3125C45.7269 27.74 46.1243 27.5777 46.4174 27.2886C46.7104 26.9996 46.875 26.6076 46.875 26.1989V19.5721C46.8744 19.2224 46.7531 18.8833 46.5312 18.6105L41.9062 12.9084C41.7601 12.7279 41.5747 12.5821 41.3638 12.4818C41.1528 12.3815 40.9217 12.3292 40.6875 12.3289H37.5V24.6578ZM9.375 27.74C8.5462 27.74 7.75134 28.0648 7.16529 28.6428C6.57924 29.2208 6.25 30.0048 6.25 30.8222C6.25 31.6397 6.57924 32.4237 7.16529 33.0017C7.75134 33.5797 8.5462 33.9045 9.375 33.9045C10.2038 33.9045 10.9987 33.5797 11.5847 33.0017C12.1708 32.4237 12.5 31.6397 12.5 30.8222C12.5 30.0048 12.1708 29.2208 11.5847 28.6428C10.9987 28.0648 10.2038 27.74 9.375 27.74ZM37.5 27.74C36.6712 27.74 35.8763 28.0648 35.2903 28.6428C34.7042 29.2208 34.375 30.0048 34.375 30.8222C34.375 31.6397 34.7042 32.4237 35.2903 33.0017C35.8763 33.5797 36.6712 33.9045 37.5 33.9045C38.3288 33.9045 39.1237 33.5797 39.7097 33.0017C40.2958 32.4237 40.625 31.6397 40.625 30.8222C40.625 30.0048 40.2958 29.2208 39.7097 28.6428C39.1237 28.0648 38.3288 27.74 37.5 27.74Z" fill="black"></path></svg>