<svg xmlns="http://www.w3.org/2000/svg" width="50" height="42" viewBox="0 0 50 42" fill="none"><path d="M38.4615 15.2727V22.9091C38.4615 23.4154 38.2589 23.901 37.8983 24.259C37.5376 24.617 37.0485 24.8182 36.5385 24.8182H18.101L20.601 27.2761C20.9621 27.6381 21.1647 28.1269 21.1647 28.6364C21.1647 29.1458 20.9621 29.6346 20.601 29.9966C20.2334 30.3494 19.7421 30.5467 19.2308 30.5467C18.7195 30.5467 18.2282 30.3494 17.8606 29.9966L12.0913 24.2693C11.7302 23.9074 11.5276 23.4185 11.5276 22.9091C11.5276 22.3997 11.7302 21.9108 12.0913 21.5489L17.8606 15.8216C18.2342 15.5172 18.7086 15.3616 19.1914 15.3851C19.6742 15.4087 20.1309 15.6096 20.4727 15.9489C20.8145 16.2883 21.0169 16.7417 21.0406 17.2209C21.0643 17.7002 20.9076 18.1711 20.601 18.542L18.101 21H34.6154V15.2727C34.6154 14.7664 34.818 14.2808 35.1786 13.9228C35.5393 13.5648 36.0284 13.3636 36.5385 13.3636C37.0485 13.3636 37.5376 13.5648 37.8983 13.9228C38.2589 14.2808 38.4615 14.7664 38.4615 15.2727V15.2727ZM50 3.81818V38.1818C50 39.1945 49.5948 40.1656 48.8735 40.8817C48.1522 41.5977 47.1739 42 46.1538 42H3.84615C2.82609 42 1.84781 41.5977 1.12651 40.8817C0.405218 40.1656 0 39.1945 0 38.1818V3.81818C0 2.80554 0.405218 1.83437 1.12651 1.11832C1.84781 0.402271 2.82609 0 3.84615 0H46.1538C47.1739 0 48.1522 0.402271 48.8735 1.11832C49.5948 1.83437 50 2.80554 50 3.81818ZM46.1538 38.1818V3.81818H3.84615V38.1818H46.1538Z" fill="black"></path></svg>